:SAMPLES-PER-SECOND 30
:FULLY-SPECIFIED
:DEGREES
62
root  50.0072 40.8874 -13.8773 11.2202 -70.35 -15.013
RightUpLeg  -21.9935 -14.3147 -0.178793
RightLeg  49.3526 -7.2489 -9.29784
RightFoot  -4.55487 -0.453507 7.11612
RightToes  1.16414e-010 0 -3.6325e-017
Spine  10.4392 -0.419589 1.4971
Spine1  2.77274 -1.02508 3.51352
HEad  2.11991 42.2988 -12.8327
LeftShoulder1  6.43595 -10.7346 -38.9946
LeftArm  -49.4754 0.332366 -14.638
LeftForeArm  -12.0751 -45.9304 -12.3613
LeftHand  -0.244104 0.0205437 5.32207
RightShoulder  4.78623 8.70175 33.2723
RightArm  -5.06904 -21.2938 29.8767
RightForeArm  -6.49154 27.5892 6.28575
RightHand  -1.79919 5.13522 -19.9461
LeftUpLeg  4.99142 7.27823 2.8973
LeftLeg  11.1898 6.34791 0.024239
LeftFoot  -7.73967 0.144461 -3.07537
LeftToes  -6.45774e-011 3.08606e-011 -5.1752e-012
63
root  49.0733 40.619 -13.6765 11.8585 -69.2013 -16.4951
RightUpLeg  -23.0645 -15.2218 0.7085
RightLeg  43.7429 -7.46091 -7.88303
RightFoot  -4.76634 -0.463669 7.49375
RightToes  1.16414e-010 0 -3.6325e-017
Spine  12.3996 -0.473523 0.956186
Spine1  1.72869 -1.5512 5.40093
HEad  0.0388764 40.4765 -11.3599
LeftShoulder1  5.72871 -10.271 -35.5
LeftArm  -49.2215 -0.500297 -16.8731
LeftForeArm  -10.8009 -49.1735 -13.7709
LeftHand  -0.244104 0.0205437 5.32207
RightShoulder  4.5323 8.53504 31.6992
RightArm  -6.65674 -24.0963 28.1301
RightForeArm  -4.6304 32.5748 7.46344
RightHand  -1.84391 5.08446 -20.5142
LeftUpLeg  7.5084 7.96926 4.61251
LeftLeg  11.4746 9.4325 0.544247
LeftFoot  -9.63923 0.0784013 -0.98971
LeftToes  -6.45774e-011 3.08606e-011 -5.1752e-012
64
root  48.0886 40.0994 -13.4889 10.7945 -68.9864 -16.9012
RightUpLeg  -23.0853 -15.562 1.10679
RightLeg  37.9485 -6.72468 -5.87192
RightFoot  -4.74126 -0.466093 7.51335
RightToes  1.16414e-010 0 -3.6325e-017
Spine  14.4785 -0.07804 -0.422042
Spine1  2.15275 -1.8017 7.39662
HEad  -3.78216 38.7204 -11.2058
LeftShoulder1  5.08322 -9.72368 -32.3897
LeftArm  -49.8493 -1.56497 -18.5789
LeftForeArm  -8.37872 -54.0286 -16.3
LeftHand  -0.244104 0.0205437 5.32207
RightShoulder  4.11177 7.9125 30.0488
RightArm  -8.27574 -25.0319 27.0176
RightForeArm  -2.97473 36.9965 8.62281
RightHand  -1.98834 5.29822 -21.6402
LeftUpLeg  10.8 8.61831 5.95803
LeftLeg  12.1205 9.79842 0.126963
LeftFoot  -13.4125 0.0794535 0.30443
LeftToes  -6.45774e-011 3.08606e-011 -5.1752e-012
65
root  46.9584 39.5677 -13.3088 8.68805 -69.0121 -15.6138
RightUpLeg  -22.9358 -15.9932 1.40877
RightLeg  31.7796 -4.96013 -3.55431
RightFoot  -4.51325 -0.448759 6.99847
RightToes  1.16414e-010 0 -3.6325e-017
Spine  15.4688 0.407572 -3.09284
Spine1  3.16589 -2.35562 10.2575
HEad  -7.42114 37.8922 -11.4639
LeftShoulder1  4.83991 -9.39119 -31.4888
LeftArm  -50.8712 -1.8479 -17.996
LeftForeArm  -4.14268 -59.6612 -20.1156
LeftHand  -0.244104 0.0205437 5.32207
RightShoulder  3.64085 6.80537 29.3506
RightArm  -9.80732 -23.4656 25.981
RightForeArm  -1.6415 38.9911 9.16656
RightHand  -2.13352 5.50544 -22.7429
LeftUpLeg  13.5984 9.18892 6.66456
LeftLeg  12.9463 8.03693 -0.396857
LeftFoot  -17.6314 0.0601845 -0.781412
LeftToes  -6.45774e-011 3.08606e-011 -5.1752e-012
66
root  45.6846 39.1082 -13.1215 7.02701 -69.0207 -13.7676
RightUpLeg  -23.2389 -16.6542 2.13672
RightLeg  26.3464 -2.65178 -1.64622
RightFoot  -4.27816 -0.480627 7.30527
RightToes  1.16414e-010 0 -3.6325e-017
Spine  15.3642 0.573331 -5.62197
Spine1  3.53139 -3.08474 12.8708
HEad  -8.91185 38.0989 -10.866
LeftShoulder1  5.09162 -9.45938 -33.2176
LeftArm  -51.384 -0.812071 -15.06
LeftForeArm  1.06357 -64.7277 -24.985
LeftHand  -0.244104 0.0205437 5.32207
RightShoulder  3.34227 5.80878 29.9241
RightArm  -12.3484 -20.8203 25.3419
RightForeArm  -0.635065 38.0962 8.8318
RightHand  -2.20349 5.56579 -23.3349
LeftUpLeg  14.8598 10.1999 6.93642
LeftLeg  14.9902 6.47225 0.247145
LeftFoot  -20.5291 -0.0609804 -2.32102
LeftToes  -6.45774e-011 3.08606e-011 -5.1752e-012
67
root  44.3012 38.7049 -12.9062 6.33912 -69.647 -12.8817
RightUpLeg  -23.1951 -17.0251 3.41388
RightLeg  22.8163 -0.625218 -0.496154
RightFoot  -4.2182 -0.61176 9.32783
RightToes  1.16414e-010 0 -3.6325e-017
Spine  15.0736 0.46108 -6.1559
Spine1  3.36444 -3.30536 13.3448
HEad  -8.02062 38.4911 -8.94253
LeftShoulder1  5.59721 -9.68783 -36.3244
LeftArm  -51.0606 0.969706 -11.7109
LeftForeArm  6.12805 -68.4116 -30.1216
LeftHand  -0.244104 0.0205437 5.32207
RightShoulder  3.3448 5.52564 31.0795
RightArm  -16.6686 -19.2296 25.9451
RightForeArm  -0.692047 35.9246 8.17642
RightHand  -2.23671 5.66851 -23.4623
LeftUpLeg  15.5272 11.3135 7.18518
LeftLeg  18.4244 5.85678 1.834
LeftFoot  -21.7735 -0.247348 -4.10498
LeftToes  -6.45774e-011 3.08606e-011 -5.1752e-012
68
root  42.8251 38.3599 -12.6744 6.283 -71.0331 -13.2223
RightUpLeg  -22.1652 -16.7429 5.10407
RightLeg  21.5589 0.595366 0.0549695
RightFoot  -3.76582 -0.679496 9.90775
RightToes  1.16414e-010 0 -3.6325e-017
Spine  14.8964 0.326353 -4.6104
Spine1  3.66567 -2.88311 11.7119
HEad  -5.92785 38.3423 -6.21957
LeftShoulder1  6.05523 -9.83201 -39.1905
LeftArm  -50.1403 2.87378 -9.98395
LeftForeArm  10.0876 -70.5645 -34.1843
LeftHand  -0.244104 0.0205437 5.32207
RightShoulder  3.58872 5.90124 32.206
RightArm  -21.4696 -19.2329 27.8066
RightForeArm  -3.00511 34.2621 7.83086
RightHand  -2.33273 6.05816 -23.632
LeftUpLeg  16.2097 11.5021 7.80192
LeftLeg  23.2461 5.32214 2.90137
LeftFoot  -21.7636 -0.654424 -8.62901
LeftToes  -6.45774e-011 3.08606e-011 -5.1752e-012
69
root  41.2754 38.0387 -12.4735 7.02273 -72.1767 -14.2103
RightUpLeg  -21.5567 -15.269 7.02128
RightLeg  23.1526 0.39518 -0.0378806
RightFoot  -2.72057 -0.380068 4.87156
RightToes  1.16414e-010 0 -3.6325e-017
Spine  14.3244 0.0469899 -2.33622
Spine1  4.49709 -2.38814 9.75867
HEad  -3.49843 37.6222 -3.45842
LeftShoulder1  6.44064 -10.0216 -41.2764
LeftArm  -48.8518 5.0698 -10.0732
LeftForeArm  11.5341 -71.1904 -35.584
LeftHand  -0.244104 0.0205437 5.32207
RightShoulder  3.85535 6.36686 33.1136
RightArm  -24.464 -19.9237 30.2077
RightForeArm  -7.03196 33.4671 7.83065
RightHand  -2.50397 6.65245 -24.1022
LeftUpLeg  14.9239 11.2667 9.12508
LeftLeg  31.1226 4.5756 3.33254
LeftFoot  -18.9284 -0.848317 -14.892
LeftToes  -6.45774e-011 3.08606e-011 -5.1752e-012
70
root  39.7271 37.5396 -12.3275 8.82052 -72.241 -15.7113
RightUpLeg  -23.083 -12.1509 8.92518
RightLeg  28.8211 -1.87652 -1.39963
RightFoot  -3.0343 0.249566 -3.94131
RightToes  1.16414e-010 0 -3.6325e-017
Spine  13.6591 -0.623063 0.052864
Spine1  4.90543 -2.22875 8.34142
HEad  -1.3087 36.712 -1.43906
LeftShoulder1  6.94032 -10.4869 -43.1219
LeftArm  -47.5335 7.64507 -10.6726
LeftForeArm  9.3014 -70.3304 -33.7895
LeftHand  -0.244104 0.0205437 5.32207
RightShoulder  3.99499 6.57733 33.6796
RightArm  -25.0088 -20.475 32.5091
RightForeArm  -10.1247 33.294 7.94668
RightHand  -2.62957 7.05061 -24.4903
LeftUpLeg  9.44384 10.9125 10.8035
LeftLeg  43.9295 4.44541 5.06746
LeftFoot  -10.3389 0.148035 -16.8083
LeftToes  -6.45774e-011 3.08606e-011 -5.1752e-012
71
root  38.3087 36.7636 -12.196 11.6411 -71.5931 -18.8339
RightUpLeg  -25.2381 -8.90675 10.7904
RightLeg  37.196 -4.96719 -4.34011
RightFoot  -6.24954 0.397742 -9.73916
RightToes  1.16414e-010 0 -3.6325e-017
Spine  14.4466 -1.60993 3.2567
Spine1  4.79435 -2.2708 6.94135
HEad  -0.503612 35.9725 -0.887334
LeftShoulder1  7.59828 -11.1826 -45.0772
LeftArm  -46.9003 9.54065 -11.1188
LeftForeArm  3.73292 -68.0975 -29.9223
LeftHand  -0.244104 0.0205437 5.32207
RightShoulder  4.08271 6.75421 33.85
RightArm  -24.224 -20.2866 34.4921
RightForeArm  -10.5718 33.6341 8.0648
RightHand  -2.62354 7.05765 -24.4215
LeftUpLeg  1.7186 8.99297 12.2732
LeftLeg  58.547 4.033 7.53636
LeftFoot  2.4242 1.39258 -11.835
LeftToes  -6.45774e-011 3.08606e-011 -5.1752e-012
72
root  37.0714 35.8426 -12.0546 14.3151 -70.8886 -23.1946
RightUpLeg  -25.8384 -7.50507 12.5902
RightLeg  45.4951 -6.65908 -7.4982
RightFoot  -11.4869 -0.0772176 -9.97912
RightToes  1.16414e-010 0 -3.6325e-017
Spine  16.8448 -2.79645 7.05419
Spine1  5.24858 -2.25143 5.38316
HEad  -1.59002 35.4494 -1.68231
LeftShoulder1  8.21636 -11.8399 -46.7175
LeftArm  -47.438 9.47693 -12.1893
LeftForeArm  -3.72665 -64.5262 -25.2971
LeftHand  -0.244104 0.0205437 5.32207
RightShoulder  4.2279 7.14166 33.7677
RightArm  -23.0181 -18.8583 36.0177
RightForeArm  -8.8788 34.1514 8.12129
RightHand  -2.53939 6.89308 -23.9726
LeftUpLeg  -5.122 5.56786 13.4968
LeftLeg  71.4324 1.97386 7.36816
LeftFoot  10.4455 1.21466 -6.46892
LeftToes  -6.45774e-011 3.08606e-011 -5.1752e-012
73
root  35.8224 35.2782 -11.9042 15.3933 -70.6418 -26.0267
RightUpLeg  -24.1812 -7.60152 13.7726
RightLeg  50.1548 -6.77223 -8.98247
RightFoot  -16.0913 -0.470213 -8.6003
RightToes  1.16414e-010 0 -3.6325e-017
Spine  18.6767 -3.59499 9.41198
Spine1  6.4554 -2.15351 4.22112
HEad  -3.03678 34.9009 -2.68545
LeftShoulder1  8.64044 -12.2978 -47.7254
LeftArm  -48.7254 7.73885 -14.3373
LeftForeArm  -11.2238 -59.7411 -20.805
LeftHand  -0.244104 0.0205437 5.32207
RightShoulder  4.37363 7.54624 33.6336
RightArm  -21.4313 -16.595 36.9175
RightForeArm  -6.54201 34.4442 8.07876
RightHand  -2.45761 6.76482 -23.4666
LeftUpLeg  -10.7108 2.04419 13.8064
LeftLeg  80.7147 0.456383 5.70471
LeftFoot  11.0003 0.788898 -4.31064
LeftToes  -6.45774e-011 3.08606e-011 -5.1752e-012
74
root  34.4648 35.2067 -11.7578 15.7564 -70.7184 -26.5285
RightUpLeg  -22.1441 -7.9023 14.3248
RightLeg  51.3545 -6.63808 -9.21689
RightFoot  -19.0541 -0.71618 -8.67258
RightToes  1.16414e-010 0 -3.6325e-017
Spine  18.587 -3.7164 9.93739
Spine1  7.27752 -2.11391 3.93745
HEad  -3.10053 34.3387 -3.15237
LeftShoulder1  8.96416 -12.5976 -48.6001
LeftArm  -49.8766 5.96039 -16.4676
LeftForeArm  -17.0535 -54.6512 -17.2803
LeftHand  -0.244104 0.0205437 5.32207
RightShoulder  4.43063 7.6877 33.6432
RightArm  -19.5033 -14.6879 37.304
RightForeArm  -4.99825 34.6114 8.04169
RightHand  -2.42916 6.71519 -23.2971
LeftUpLeg  -16.5435 -0.614994 13.2514
LeftLeg  85.5393 -0.0409792 5.36372
LeftFoot  8.38603 0.618026 -3.85715
LeftToes  -6.45774e-011 3.08606e-011 -5.1752e-012
75
root  33.0375 35.5584 -11.634 14.9938 -71.036 -24.4804
RightUpLeg  -20.073 -8.09123 13.964
RightLeg  50.1507 -6.87156 -9.11323
RightFoot  -20.8108 -0.895573 -9.10245
RightToes  1.16414e-010 0 -3.6325e-017
Spine  17.3961 -3.42984 8.97001
Spine1  7.08252 -2.18433 4.05148
HEad  -2.29838 34.1458 -3.67629
LeftShoulder1  9.27892 -12.7884 -49.7201
LeftArm  -50.3594 5.30032 -17.4452
LeftForeArm  -20.4199 -50.8701 -15.2212
LeftHand  -0.244104 0.0205437 5.32207
RightShoulder  4.43913 7.64266 33.8775
RightArm  -17.527 -13.8 37.6892
RightForeArm  -4.86602 34.9879 8.14214
RightHand  -2.51288 6.90658 -23.7054
LeftUpLeg  -22.2938 -2.67232 11.6786
LeftLeg  85.6524 0.0410432 6.9932
LeftFoot  6.36734 0.448531 -3.12141
LeftToes  -6.45774e-011 3.08606e-011 -5.1752e-012
76
root  31.5897 36.3758 -11.557 11.2074 -71.7691 -19.278
RightUpLeg  -16.2551 -8.81782 12.0768
RightLeg  45.7005 -6.70659 -7.67463
RightFoot  -21.2553 -0.931519 -9.06739
RightToes  1.16414e-010 0 -3.6325e-017
Spine  16.4091 -2.97319 6.52122
Spine1  6.60064 -2.23554 3.83313
HEad  -2.22165 34.5134 -5.07118
LeftShoulder1  9.45902 -12.8329 -50.5412
LeftArm  -50.2574 5.63012 -17.625
LeftForeArm  -21.4906 -49.2905 -14.4687
LeftHand  -0.244104 0.0205437 5.32207
RightShoulder  4.48158 7.64537 34.2443
RightArm  -15.4212 -13.6713 38.4279
RightForeArm  -5.54457 35.5085 8.33052
RightHand  -2.70958 7.44907 -24.4549
LeftUpLeg  -25.9861 -4.75336 8.62
LeftLeg  81.1499 0.938595 9.64742
LeftFoot  4.83357 0.108138 -0.947432
LeftToes  -6.45774e-011 3.08606e-011 -5.1752e-012
